<?xml version="1.0" standalone="no"?>
<!DOCTYPE svg PUBLIC "-//W3C//DTD SVG 20010904//EN"
 "http://www.w3.org/TR/2001/REC-SVG-20010904/DTD/svg10.dtd">
<svg version="1.0" xmlns="http://www.w3.org/2000/svg"
 width="320.000000pt" height="320.000000pt" viewBox="0 0 320.000000 320.000000"
 preserveAspectRatio="xMidYMid meet">
<g transform="translate(0.000000,320.000000) scale(0.100000,-0.100000)"
fill="#000000" stroke="none">
<path d="M4 2283 c3 -10 28 -101 56 -203 27 -102 55 -201 60 -220 16 -55 169
-613 175 -640 3 -8 13 -46 24 -85 44 -160 61 -220 61 -225 0 -3 30 -5 66 -5
47 0 68 4 74 15 4 8 19 58 33 110 126 471 287 1053 291 1058 3 2 10 -16 16
-39 6 -24 15 -57 20 -74 5 -16 73 -261 150 -544 77 -283 143 -517 146 -520 4
-4 134 -9 134 -5 0 0 50 183 111 405 60 222 144 528 185 679 41 151 77 283 80
293 5 15 -2 17 -60 17 -63 0 -66 -1 -72 -27 -4 -16 -26 -100 -49 -188 -63
-236 -126 -478 -130 -495 -20 -89 -130 -490 -135 -490 -3 0 -14 30 -23 68 -9
37 -59 229 -112 427 -52 198 -113 430 -136 515 -22 85 -43 163 -45 173 -5 14
-17 17 -78 17 l-73 0 -47 -177 c-67 -251 -155 -584 -217 -820 -29 -112 -57
-199 -60 -195 -4 4 -51 174 -104 377 -54 204 -119 451 -145 550 -27 99 -54
199 -60 223 l-11 42 -65 0 c-58 0 -65 -2 -60 -17z"/>
<path d="M2145 1605 c0 -615 1 -695 15 -696 8 -1 35 -2 60 -3 l45 -1 5 320 5
320 388 1 c228 0 390 -4 394 -9 3 -5 5 -149 5 -321 l0 -311 57 1 c31 1 59 2
64 3 4 0 7 314 7 696 l0 695 -64 0 -64 0 0 -297 c0 -164 -1 -308 -1 -320 l-1
-23 -395 0 -395 0 0 320 0 320 -63 0 -62 0 0 -695z"/>
</g>
</svg>
